<svg width="35" height="35" viewBox="0 0 35 35" fill="none" xmlns="http://www.w3.org/2000/svg">
<g id="close">
<path id="Vector" d="M21.1457 13.8542L13.854 21.1458M13.854 13.8542L21.1457 21.1458" stroke="white" stroke-width="3" stroke-linecap="round"/>
<path id="Vector_2" d="M32.0832 17.5C32.0832 24.3746 32.0832 27.812 29.9474 29.9476C27.8119 32.0833 24.3744 32.0833 17.4998 32.0833C10.6252 32.0833 7.18786 32.0833 5.05219 29.9476C2.9165 27.812 2.9165 24.3746 2.9165 17.5C2.9165 10.6253 2.9165 7.18801 5.05219 5.05234C7.18786 2.91666 10.6252 2.91666 17.4998 2.91666C24.3744 2.91666 27.8119 2.91666 29.9474 5.05234C31.3676 6.47238 31.8434 8.46787 32.0028 11.6667" stroke="white" stroke-width="3" stroke-linecap="round"/>
</g>
</svg>
