<svg width="30" height="40" viewBox="0 0 30 40" fill="none" xmlns="http://www.w3.org/2000/svg">
<path d="M0 5C0 2.23858 2.23858 0 5 0H30V40H5C2.23858 40 0 37.7614 0 35V5Z" fill="black" fill-opacity="0.2"/>
<path d="M21.0607 21.0607C21.6464 20.4749 21.6464 19.5251 21.0607 18.9393L11.5147 9.3934C10.9289 8.80761 9.97919 8.80761 9.3934 9.3934C8.80761 9.97919 8.80761 10.9289 9.3934 11.5147L17.8787 20L9.3934 28.4853C8.80761 29.0711 8.80761 30.0208 9.3934 30.6066C9.97919 31.1924 10.9289 31.1924 11.5147 30.6066L21.0607 21.0607ZM19 21.5H20V18.5H19V21.5Z" fill="white"/>
</svg>
