<svg width="30" height="40" viewBox="0 0 30 40" fill="none" xmlns="http://www.w3.org/2000/svg">
<path d="M30 35C30 37.7614 27.7614 40 25 40L0 40L3.49691e-06 -2.62268e-06L25 -4.37114e-07C27.7614 -1.95703e-07 30 2.23857 30 5L30 35Z" fill="black" fill-opacity="0.2"/>
<path d="M8.93934 18.9393C8.35355 19.5251 8.35355 20.4749 8.93934 21.0607L18.4853 30.6066C19.0711 31.1924 20.0208 31.1924 20.6066 30.6066C21.1924 30.0208 21.1924 29.0711 20.6066 28.4853L12.1213 20L20.6066 11.5147C21.1924 10.9289 21.1924 9.97919 20.6066 9.3934C20.0208 8.80761 19.0711 8.80761 18.4853 9.3934L8.93934 18.9393ZM11 18.5L10 18.5L10 21.5L11 21.5L11 18.5Z" fill="white"/>
</svg>
