<svg width="26" height="25" viewBox="0 0 26 25" fill="none" xmlns="http://www.w3.org/2000/svg">
<g id="basket" clip-path="url(#clip0_46_63)">
<path id="Vector" d="M23.7207 9L21.8213 20.1414C21.5869 21.5159 21.4698 22.2032 21.164 22.7172C20.8942 23.1705 20.5229 23.5275 20.0911 23.7489C19.6014 24 19.004 24 17.8091 24H9.17422C7.97938 24 7.38195 24 6.89227 23.7489C6.46045 23.5275 6.08918 23.1705 5.81944 22.7172C5.51355 22.2032 5.39639 21.5159 5.16206 20.1414L3.26264 9M1.98401 9H24.9994M8.37716 13.5V13.515M18.6062 13.5V13.515M5.8199 9L9.65579 0M21.1635 9L17.3276 0" stroke="black" stroke-width="3" stroke-linecap="round" stroke-linejoin="round"/>
</g>
<defs>
<clipPath id="clip0_46_63">
<rect width="25.0167" height="25" fill="white" transform="translate(0.983337)"/>
</clipPath>
</defs>
</svg>
