<svg width="81" height="37" viewBox="0 0 81 37" fill="none" xmlns="http://www.w3.org/2000/svg">
<g id="logo">
<path id="Vector" d="M0.0518603 18.6371C-0.271584 4.83583 14.8282 -4.85768 28.0812 2.71747C32.4473 5.21304 36.1537 8.9091 40.1389 12.9458C40.3201 13.1294 40.4038 13.1104 40.5733 12.9399C46.8067 6.67243 55.8324 -2.88438 68.4744 0.833871C73.7948 2.39866 77.4917 5.84157 79.3858 11.0295C85.7249 28.3927 67.5412 42.7681 51.9481 33.2387C48.0153 30.8352 44.6189 27.5188 40.6042 23.4406C40.3899 23.2229 40.2933 23.2537 40.0973 23.4508C35.5362 28.0384 30.6266 33.0251 24.5624 35.1127C12.222 39.3607 0.392101 32.0261 0.0518603 18.6371ZM7.77384 18.3696C8.16727 26.3418 14.3155 30.0583 20.8663 28.6451C26.5276 27.4238 31.2767 22.4575 35.3217 18.3101C35.458 18.1703 35.3816 18.1136 35.2879 18.0264C31.7747 14.7555 28.3437 10.7599 24.0197 8.70382C15.6391 4.71877 7.74563 10.563 7.77384 18.3696ZM72.9368 18.0326C72.6878 10.328 66.5937 6.12942 59.5714 7.77235C54.0462 9.065 49.3247 14.0078 45.4021 18.0278C45.266 18.1672 45.3182 18.2324 45.4298 18.3362C50.3343 22.9014 56.122 30.1094 63.9416 28.7957C69.1502 27.9206 72.9485 23.3955 72.9368 18.0326Z" fill="black"/>
</g>
</svg>
