<svg width="21" height="25" viewBox="0 0 21 25" fill="none" xmlns="http://www.w3.org/2000/svg">
<path id="Vector" d="M5.54202 1.23142C3.41815 2.45753 1.89877 4.43762 1.26408 6.80647C0.629264 9.17532 0.955176 11.6497 2.18129 13.7736C3.8167 16.606 6.86607 18.3656 10.1397 18.3656C11.1734 18.3656 12.199 18.1877 13.1713 17.8463L17.3015 25L20.2464 23.2997L16.1169 16.1472C17.5118 14.9537 18.5161 13.3708 19.0015 11.5591C19.6362 9.19028 19.3103 6.71602 18.0842 4.59201C16.4489 1.7596 13.3994 0 10.1259 0C8.52243 0 6.93735 0.425753 5.54202 1.23142ZM15.1393 6.2923C15.9113 7.62955 16.1165 9.18756 15.7168 10.6791C15.3172 12.1706 14.3605 13.4172 13.0233 14.1893C12.1443 14.6968 11.1471 14.965 10.1397 14.965C8.07722 14.965 6.15616 13.857 5.12633 12.0733C4.35426 10.736 4.14914 9.17817 4.54891 7.68654C4.94855 6.19505 5.9052 4.94839 7.24245 4.17619C8.12129 3.66882 9.11848 3.40058 10.1259 3.40058C12.1885 3.40058 14.1094 4.50863 15.1393 6.2923Z" fill="black"/>
</svg>
